<svg id="Layer_1" data-name="Layer 1" xmlns="http://www.w3.org/2000/svg" viewBox="0 0 640 200"><defs><style>.cls-1,.cls-3{fill:#fff;}.cls-2{fill:#f0c64d;}.cls-3{font-size:134px;font-family:QuantumRegular, Quantum;}</style></defs><polygon class="cls-1" points="83.6 59.04 83.64 22.21 54.78 41.84 54.78 73.47 83.6 59.04"/><polygon class="cls-1" points="54.78 127.08 54.78 158.6 83.49 177.79 83.53 141.57 54.78 127.08"/><polygon class="cls-1" points="167.87 72.99 167.87 41.4 139.16 22.21 139.13 58.51 167.87 72.99"/><polygon class="cls-1" points="139.05 140.88 139.01 177.79 167.87 158.16 167.87 126.46 139.05 140.88"/><polygon class="cls-2" points="112.94 51.73 16.18 100.15 83.53 134.09 83.56 104.88 74.19 100.15 112.94 80.52 112.94 51.73"/><polygon class="cls-2" points="109.71 148.27 206.47 99.85 139.12 65.91 139.09 95.12 148.46 99.85 109.71 119.48 109.71 148.27"/><text class="cls-3" transform="translate(215.67 155.71)">CODE</text></svg>